<svg width="470" height="120" xmlns="http://www.w3.org/2000/svg" xml:space="preserve" version="1.1">
 <defs>
  <linearGradient y2="0.01298" x2="0.51851" y1="0.972" x1="0.49352" id="SVGID_1_">
   <stop stop-color="#6E459B" offset="0.0555"/>
   <stop stop-color="#492C76" offset="0.788"/>
  </linearGradient>
  <linearGradient y2="0.23181" x2="1.04861" y1="0.72234" x1="0.10329" id="SVGID_00000095332711082764584750000005339642151593535639_">
   <stop stop-color="#6E459B" offset="0.1912"/>
   <stop stop-color="#492C76" offset="0.5061"/>
  </linearGradient>
  <linearGradient y2="-0.07379" x2="0.49976" y1="1.09388" x1="0.50025" id="SVGID_00000066486274081332005310000002968322685478036154_">
   <stop stop-color="#492C76" offset="0"/>
   <stop stop-color="#573384" offset="0.2503"/>
   <stop stop-color="#694096" offset="0.6864"/>
   <stop stop-color="#6E459B" offset="1"/>
  </linearGradient>
 </defs>
 <g>
  <title>Layer 1</title>
  <g id="svg_1">
   <g id="svg_2">
    <path id="svg_3" fill="url(#SVGID_1_)" d="m63.55,89.65c7.5,4.9 14.9,6.1 23.2,6.1c27.4,0 47.5,-21.7 47.2,-46.6c-0.3,-25 -18.1,-44.1 -41.7,-46.8c0,0 37.2,5.8 37.8,47c-1.6,33.4 -27.5,42.9 -42.6,44.5c-6.2,0.1 -12.6,0.6 -23.9,-4.2z" class="st0"/>
    <path id="svg_4" fill="url(#SVGID_00000095332711082764584750000005339642151593535639_)" d="m75.85,6.95c0,0 -8.4,2.5 -12.4,9.4s-8.7,14.5 -11.3,16.7c-2.6,2.2 -8.7,4.8 -13.5,5.1c0,0 -3.5,16.2 3.2,30c0,0 0.5,-2.7 1,-4.2c0.2,-0.6 0.1,-1.3 -0.1,-1.9c-1.1,-2.8 -3.3,-11.2 6.3,-16.9c8.7,-5.2 16.8,-2.9 17.4,-2.7c0,0 -4.7,1.5 -7.2,13.2c-0.6,2.6 -1.8,5 -3.8,6.8c-3.5,3.2 -7.4,3.2 -7.4,3.2s-1.1,-9.2 6.1,-16c0,0 -7.3,2.5 -9.3,13.3c0,0 -1.4,8 -0.1,10.4c0,0 14.1,25.4 43.3,24.4s46.4,-23.2 48.2,-43.9c0,0 -0.5,31.2 -30.1,44.4c-11.8,5.2 -25,6.1 -37.2,2.3c-23.2,-7.3 -32.6,-27.6 -34.9,-38.2c-0.1,-0.5 -0.1,-0.9 -0.2,-1.4c-0.5,-3 -5.3,-9.2 -5.3,-9.2c-6.5,-8.9 -14.2,-8.1 -14.2,-8.1c9.4,3 12.7,13 12.7,13s-3.6,1.6 -8.1,0.3c-2.5,-0.8 -4.8,-2.4 -6.4,-4.4c-7.3,-9.5 -12.5,-10 -12.5,-10c0.4,-0.4 6.7,-6 16.8,-5c11.2,1.1 12.8,9.6 12.9,12.5c0.1,0.7 0.3,1.2 0.7,1.8c1.1,1.2 2.7,3.4 2.7,3.4s-4.8,-26.5 17,-41.7c0,0 -13.7,4 -21.4,20.3c0,0 -8.8,-19.2 14.3,-29.1c19.5,-7.7 32.8,2.2 32.8,2.2z"/>
   </g>
  </g>
  <path id="svg_5" fill="url(#SVGID_00000066486274081332005310000002968322685478036154_)" d="m198.65,79.05l0,0.6l-11.3,0l-19.9,-26.9l-10.2,0l0,26.9l-9.8,0l0,-69l22.5,0c5.4,0 10,0.9 13.7,2.6c3.7,1.7 6.5,4.1 8.4,7.1c1.9,3.1 2.8,6.6 2.8,10.6c0,3.3 -0.6,6.3 -1.9,9c-1.2,2.8 -3.1,5.2 -5.6,7.2s-5.6,3.5 -9.3,4.4l20.6,27.5zm-41.4,-34.4l11.2,0c5.3,0 9.3,-1.2 12.1,-3.5c2.7,-2.3 4.1,-5.6 4.1,-9.7c0,-4 -1.3,-7.1 -3.8,-9.3c-2.5,-2.1 -6.2,-3.2 -11.1,-3.2l-12.5,0l0,25.7zm52,35l0,-69l9.8,0l0,69l-9.8,0zm80.9,-38.2l0,33.6c-4.2,2 -8.1,3.5 -11.8,4.4c-3.7,1 -8,1.4 -12.9,1.4c-7.6,0 -13.8,-1.5 -18.7,-4.6c-4.9,-3.1 -8.5,-7.2 -10.8,-12.6c-2.3,-5.3 -3.4,-11.5 -3.4,-18.5c0,-8.2 1.5,-15 4.5,-20.4s7,-9.3 11.9,-11.8c5,-2.5 10.5,-3.7 16.5,-3.7c4.5,0 8.6,0.5 12.3,1.6c3.8,1.1 7.3,2.6 10.6,4.7l-4.3,7.5c-2.5,-1.6 -5.2,-2.8 -8.1,-3.8s-6.2,-1.4 -9.8,-1.4c-8,0 -13.9,2.4 -17.6,7.2c-3.7,4.8 -5.6,11.4 -5.6,19.7c0,8.8 1.8,15.6 5.3,20.4s9.3,7.2 17.4,7.2c5,0 9.9,-0.9 14.7,-2.7l0,-20l-17.7,0l1.1,-8.3l26.4,0l0,0.1zm14.8,38.2l0,-69l9.8,0l0,69l-9.8,0zm83.9,-69l0,69l-10.8,0l-30.3,-44.7l-1.4,-2c-0.1,-0.3 -0.6,-1 -1.3,-2c-0.7,-1.1 -1.4,-2.1 -1.9,-3s-1,-1.8 -1.4,-2.8l0,54.5l-9.4,0l0,-69l10.3,0l31.2,45.7c0.3,0.4 0.9,1.3 1.8,2.6c0.9,1.3 1.7,2.5 2.3,3.6c0.6,1.1 1.2,2.1 1.6,3.1l0,-55l9.3,0l0,0zm74.1,0l0,69l-10.9,0l-30.3,-44.7l-1.4,-2c-0.1,-0.3 -0.6,-1 -1.3,-2c-0.7,-1.1 -1.4,-2.1 -1.9,-3s-1,-1.8 -1.4,-2.8l0,54.5l-9.4,0l0,-69l10.3,0l31.2,45.7c0.3,0.4 0.9,1.3 1.8,2.6c0.9,1.3 1.7,2.5 2.3,3.6s1.2,2.1 1.6,3.1l0,-55l9.4,0l0,0z"/>
  <text x="-78.1817" y="-336.36313" id="svg_6" font-size="25.5118px" font-family="'SegoeUI-Semilight'" fill="#492C76" class="st3 st4 st5" transform="matrix(1 0 0 1 386.352 444.435)">by  IMEXPRO</text>
  <text x="-77.93023" y="-336.33702" id="svg_7" stroke-miterlimit="10" stroke="#492C76" fill="none" font-size="25.5118px" font-family="'SegoeUI-Semilight'" class="st6 st4 st5" transform="matrix(1 0 0 1 386.352 444.435)">by  IMEXPRO</text>
 </g>
</svg>