<svg width="24" height="24" viewBox="0 0 24 24" fill="none" xmlns="http://www.w3.org/2000/svg">
<path d="M14.6981 3.28351H9.28581V12.7165H14.6981V3.28351Z" fill="#FF5A00"/>
<path d="M9.64611 8C9.64611 6.0835 10.5749 4.38252 12 3.2835C10.9512 2.4835 9.6281 2 8.18494 2C4.76621 2 2 4.6835 2 8C2 11.3165 4.76621 14 8.18494 14C9.6281 14 10.9512 13.5165 12 12.7165C10.5729 11.633 9.64611 9.9165 9.64611 8Z" fill="#EB001B"/>
<path d="M22 8C22 11.3165 19.2338 14 15.8151 14C14.3719 14 13.0488 13.5165 12 12.7165C13.4431 11.6155 14.3539 9.9165 14.3539 8C14.3539 6.0835 13.4251 4.38252 12 3.2835C13.0468 2.4835 14.3699 2 15.8131 2C19.2338 2 22 4.70097 22 8Z" fill="#F79E1B"/>
<path d="M15.0762 15.5L15.2988 15.5059C15.8167 15.5295 16.3134 15.628 16.7549 15.7871C16.9929 15.8729 17.129 16.1235 17.0723 16.3701L16.8174 17.4746C16.8206 17.5477 16.8102 17.6227 16.7793 17.6943C16.6712 17.9452 16.3814 18.0623 16.1289 17.958L16.1113 17.9512C16.1097 17.9505 16.1081 17.9489 16.1064 17.9482C15.7727 17.7998 15.3959 17.7158 14.9961 17.7158C14.9112 17.7158 14.8276 17.7201 14.7568 17.7266C14.7243 17.7308 14.6955 17.7365 14.6699 17.7422C14.748 17.7869 14.8409 17.8361 14.9541 17.8916C15.0811 17.9539 15.2338 18.0268 15.3838 18.1055C15.8671 18.3588 16.5262 18.7726 16.7256 19.5352L18.1719 16.3281L18.1738 16.3242C18.3689 15.8893 18.8157 15.6074 19.3096 15.6074H20.6953L20.7812 15.6152C20.9776 15.6493 21.1387 15.7983 21.1836 15.998L22.4883 21.8018C22.5215 21.9498 22.4854 22.1051 22.3906 22.2236C22.2957 22.3422 22.1519 22.4111 22 22.4111H20.5049C20.2708 22.4111 20.0677 22.2489 20.0166 22.0205L19.9102 21.5439H18.5801L18.3662 22.0928C18.2915 22.2848 18.1065 22.4111 17.9004 22.4111H16.2041C16.0344 22.4111 15.8763 22.3251 15.7842 22.1826C15.7343 22.1055 15.7072 22.0177 15.7041 21.9287C15.116 22.3074 14.3436 22.4988 13.4736 22.499V22.5H13.4434C12.7498 22.5 12.0827 22.3768 11.501 22.1602C11.2661 22.0724 11.1323 21.8245 11.1885 21.5801L11.4531 20.4297C11.4504 20.3522 11.4635 20.273 11.499 20.1982C11.6156 19.9528 11.9072 19.8451 12.1553 19.9561L12.1729 19.9639C12.1765 19.9655 12.18 19.968 12.1836 19.9697C12.5898 20.1721 13.0566 20.2881 13.5557 20.2881C13.5832 20.2881 13.6017 20.2885 13.6143 20.2881L13.6211 20.2871C13.7913 20.2846 13.9392 20.2528 14.0352 20.2109C13.9493 20.1507 13.8023 20.0672 13.5518 19.9541H13.5498C13.2316 19.8093 12.816 19.5968 12.4775 19.2861C12.2229 19.0523 11.9964 18.7461 11.8965 18.3613L11.0547 22.0234C11.0025 22.2503 10.8001 22.4109 10.5674 22.4111H8.9502C8.79801 22.411 8.65436 22.3417 8.55957 22.2227C8.46471 22.1034 8.42867 21.9473 8.46289 21.7988L9.39062 17.7705L7.43066 22.1172C7.34979 22.2961 7.17196 22.411 6.97559 22.4111H5.2666C5.04217 22.411 4.8453 22.2612 4.78516 22.0449L3.49707 17.4131C3.48982 17.387 3.48439 17.3599 3.48145 17.333C3.47779 17.3002 3.4541 17.2542 3.3916 17.2256L3.3877 17.2246L3.38379 17.2227V17.2217C2.96881 17.0326 2.48114 16.8764 1.96777 16.7764L1.92383 16.7695C1.78657 16.7483 1.66385 16.6706 1.58594 16.5557C1.50807 16.4407 1.48159 16.2984 1.5127 16.1631L1.55176 15.9951C1.60404 15.7682 1.80616 15.6074 2.03906 15.6074H4.78906C5.38054 15.6076 5.9156 16.0103 6.02344 16.5986L6.38379 18.3809L7.43652 15.9111L7.4707 15.8447C7.56077 15.6983 7.72107 15.6064 7.89648 15.6064L9.59375 15.6074C9.72526 15.6075 9.84823 15.6613 9.94043 15.751C10.0314 15.6624 10.154 15.6075 10.2881 15.6074H11.9023C12.0547 15.6074 12.1991 15.6777 12.2939 15.7969C12.3886 15.916 12.4237 16.0715 12.3896 16.2197L12.2949 16.6299C12.4426 16.4407 12.6205 16.2708 12.8252 16.127C13.4103 15.7158 14.1978 15.5 15.0732 15.5H15.0762Z" fill="#1434CB" stroke="white" stroke-linejoin="round"/>
</svg>
